<svg width="100" height="95" viewBox="0 0 100 95" fill="none" xmlns="http://www.w3.org/2000/svg">
<rect width="100" height="94.9755" rx="47.4877" fill="#051923"/>
<path d="M39.1259 19.3627C37.4005 19.3903 35.9006 19.7936 34.5698 20.6157C32.8331 20.8934 31.0512 20.7223 29.4498 21.0957C26.7883 21.7287 24.4538 23.3671 23.3035 27.8035C23.4953 27.4888 23.7208 27.204 23.9689 26.9562C24.6343 26.292 25.5703 25.8851 26.5289 26.0886C27.4311 26.2789 28.1191 26.9586 28.525 27.7736C28.9085 26.7623 29.4272 25.7463 30.0701 24.7195C31.1414 23.2331 32.8105 23.1266 34.3104 23.202L40.8852 24.4167L46.0165 23.5813C45.1369 21.4128 42.949 19.9264 39.9718 19.4657C41.2574 20.4374 41.4153 21.8424 41.483 23.0679C40.2875 22.1309 39.5207 21.5408 37.5809 20.8407L39.4304 19.3927C39.3289 19.3807 39.2274 19.3711 39.1259 19.3627ZM33.4984 25.2724C32.8443 25.2724 32.2241 25.4531 31.7617 25.9091C30.8708 27.3368 30.2731 28.6508 29.9573 29.9122C32.4722 29.649 34.8066 29.5293 37.2426 29.8285C36.2389 28.5072 35.2916 27.0615 34.6939 25.4531C34.2992 25.3394 33.8932 25.2736 33.4984 25.2724ZM45.8587 25.7786L44.1557 26.0551L44.7986 29.649L45.8587 25.7786ZM37.1862 25.9138C38.0771 27.5534 39.4079 29.1702 40.6484 30.7978C41.1108 31.0731 41.5168 31.1928 41.8551 31.2287C41.1446 29.625 40.7612 28.0537 40.4454 26.5146L37.1862 25.9138ZM25.3335 28.5431C25.029 28.8471 24.7358 29.3737 24.6117 30.0319C24.4877 30.6901 24.5666 31.3125 24.7358 31.7194C24.9275 32.1382 25.1418 32.3058 25.356 32.3417C25.5816 32.3895 25.841 32.3297 26.1568 32.0186C26.4725 31.7074 26.7657 31.1688 26.8898 30.5106C27.0138 29.8524 26.9236 29.242 26.7545 28.8351C26.3823 28.0704 25.841 28.0608 25.3335 28.5431ZM33.9721 31.7912C32.506 31.7912 31.0174 31.9108 29.6528 32.0904C29.6415 32.5571 29.6641 33.0358 29.7317 33.5025C29.8107 34.1368 29.9686 34.7831 30.1828 35.4413C33.4082 34.7831 36.2163 34.4121 39.2951 34.9506C39.2613 34.077 39.2049 33.2153 39.1259 32.3895C37.6599 31.9467 35.8329 31.7792 33.9721 31.7912ZM27.6792 33.4427C27.6341 33.4906 27.589 33.5504 27.5326 33.5983C26.8672 34.2565 25.9312 34.6634 24.9613 34.46C24.5553 34.3762 24.1832 34.1847 23.8674 33.9334C24.5779 35.6089 25.6718 37.3442 27.0477 38.9718C28.8408 41.102 31.0512 43.0288 33.318 44.4171C32.9571 43.9982 32.6188 43.5793 32.2917 43.1605C29.6979 39.8454 28.1303 36.8535 27.7243 33.8137C27.7131 33.694 27.6905 33.5624 27.6792 33.4427ZM35.9118 36.8415C34.2428 36.8655 32.5286 37.0809 31.0174 37.4279C31.694 38.7803 32.6301 40.2164 33.8481 41.7842C33.8819 41.832 33.927 41.8799 33.9608 41.9278C36.0697 40.6832 37.7952 40.2523 39.2838 40.1925C39.3177 39.1872 39.3402 38.158 39.3402 37.1168C38.2801 36.9133 37.1073 36.8296 35.9118 36.8415ZM35.3254 43.5554C36.2502 44.6085 37.2764 45.7215 38.3027 46.9183C39.4643 46.0207 40.9191 45.3266 42.622 45.0514C41.7987 44.1298 40.9867 43.2323 40.2086 42.3347C38.4042 42.2389 36.5321 42.8972 35.3254 43.5554ZM39.6334 48.522C40.4905 49.5871 41.3138 50.736 42.0694 51.9687C43.6144 51.0831 45.2948 50.3171 46.9639 50.1017C46.1406 49.0486 45.2835 48.0433 44.4151 47.05C42.7348 47.0619 40.8514 47.6483 39.6334 48.522ZM48.0352 52.208C46.6255 52.22 44.8098 52.8782 43.0957 53.8117C43.9189 55.4393 44.5956 57.2105 45.0016 59.1732C45.588 62.0096 45.4978 64.3432 44.1557 66.0905C43.9753 66.294 43.9302 66.3658 43.8174 66.4974C38.7876 72.9241 20.845 71.2247 21.0142 70.3151C21.2623 68.6875 31.8519 71.2127 40.0169 66.6889C33.6225 66.7009 26.8109 66.4615 20.7999 67.2514C19.106 67.5745 12.7342 67.8617 12.6226 70.2194C12.7962 72.1462 14.7912 73.1395 16.1412 73.702C18.5218 74.6714 23.7321 75.2697 27.4086 75.5091C34.7615 75.9758 43.3212 74.9466 47.2683 73.1993C49.8058 72.0744 51.2155 70.4946 52.0049 68.6277C52.7831 66.7727 52.9184 64.5706 52.6365 62.3087C52.1628 58.515 50.5727 55.2239 48.5314 52.232C48.3735 52.22 48.2044 52.208 48.0352 52.208ZM36.814 57.6892C31.2768 57.6773 14.8521 59.4724 14.8939 63.6132C14.9051 64.5826 15.5818 65.3366 16.7242 65.923C17.87 65.5639 19.1613 65.3126 20.5405 65.1211C24.7358 64.5467 29.7317 64.5587 33.2391 64.4869C34.7503 64.451 36.9155 64.5228 38.8778 64.5347C39.8703 64.5467 40.8063 64.5467 41.5619 64.5228C42.0919 64.5108 42.4979 64.4629 42.7912 64.427C43.2423 63.6731 43.4114 62.7515 43.2986 61.4351L20.4841 62.6079C23.5742 60.8846 30.1941 60.0708 35.6525 59.5921C38.4493 58.9937 38.7312 58.4791 38.5959 57.8807C38.4944 57.761 37.8403 57.6892 36.814 57.6892ZM54.4634 60.8487C54.5311 61.2317 54.5875 61.6266 54.6439 62.0335C54.7454 62.8473 54.8018 63.6611 54.8018 64.4869C56.6062 64.3313 58.6248 63.685 59.7752 63.697C59.0872 64.7142 56.7528 65.7554 54.689 66.3299C54.5536 67.4309 54.283 68.496 53.8544 69.5253C53.7304 69.8244 53.5838 70.1236 53.4372 70.4109C58.264 70.0279 61.8615 69.1303 61.9292 64.8339C61.9743 62.0335 57.7678 61.1598 54.4634 60.8487Z" fill="#74C5EC"/>
<path d="M53.585 40.8099C53.585 41.1386 53.466 41.4219 53.228 41.6599C53.0013 41.8866 52.7237 41.9999 52.395 41.9999H47.635C47.3063 41.9999 47.023 41.8866 46.785 41.6599C46.5583 41.4219 46.445 41.1386 46.445 40.8099V34.8599C46.445 34.5313 46.5583 34.2536 46.785 34.0269C47.023 33.7889 47.3063 33.6699 47.635 33.6699H52.395C52.7237 33.6699 53.0013 33.7889 53.228 34.0269C53.466 34.2536 53.585 34.5313 53.585 34.8599V40.8099ZM52.225 40.8099V34.8599H47.805V40.8099H52.225ZM63.6973 40.8099C63.6973 41.1273 63.5783 41.4049 63.3403 41.6429C63.1023 41.8809 62.8247 41.9999 62.5073 41.9999H56.5573V36.0499L57.7473 34.8599H56.5573V33.6699H62.5073C62.8247 33.6699 63.1023 33.7889 63.3403 34.0269C63.5783 34.2649 63.6973 34.5426 63.6973 34.8599V40.8099ZM62.3373 40.8099V34.8599H57.9173V41.8299L58.9373 40.8099H62.3373ZM73.9777 41.9999H72.2437L68.7077 38.4299H72.4477V34.8599H68.0277V41.9999H66.6677V36.0329L67.8577 34.8599H66.6677V33.6699H72.6177C72.935 33.6699 73.2127 33.7889 73.4507 34.0269C73.6887 34.2649 73.8077 34.5426 73.8077 34.8599V38.0899C73.8077 38.9966 73.411 39.4499 72.6177 39.4499H71.5977V39.6369L73.9777 41.9999ZM83.586 41.9999H82.226V39.6199H77.806V41.9999H76.446V34.8599C76.446 34.5313 76.5593 34.2536 76.786 34.0269C77.024 33.7889 77.3073 33.6699 77.636 33.6699H83.586V41.9999ZM82.226 38.4299V34.8599H77.806V39.4499L78.826 38.4299H82.226Z" fill="#74C5EC"/>
</svg>
