<svg width="679" height="607" viewBox="0 0 679 607" fill="none" xmlns="http://www.w3.org/2000/svg">
<g clip-path="url(#clip0_106_109)">
<path d="M183.39 55.8899C186.14 48.9399 192.07 44.8199 196.63 46.6799C201.19 48.5399 202.66 55.6899 199.91 62.6399C198.85 65.4299 197.12 67.9099 194.85 69.8699L182.81 99.1499L168.74 92.8599L182.1 64.6599C181.8 61.6499 182.24 58.6399 183.38 55.8799L183.39 55.8899Z" fill="#A0616A"/>
<path d="M132.94 242.82C132.94 242.82 112.75 233.04 114.15 226.02C115.55 218.99 175.7 69.28 175.7 69.28L203.55 87.58L132.94 242.83V242.82Z" fill="#006494"/>
<path d="M435.76 606.19H242.64C214.55 606.19 191.7 583.34 191.7 555.25V50.94C191.7 22.85 214.55 0 242.64 0H435.76C463.85 0 486.7 22.85 486.7 50.94V555.25C486.7 583.34 463.85 606.19 435.76 606.19Z" fill="#146289"/>
<path d="M435.9 592.4H242.5C221.71 592.4 204.79 575.48 204.79 554.69V50.51C204.79 29.72 221.71 12.8 242.5 12.8H435.9C456.69 12.8 473.61 29.72 473.61 50.51V554.69C473.61 575.48 456.69 592.4 435.9 592.4Z" fill="#74C5EC" fill-opacity="0.06"/>
<path d="M366.55 46.3599H311.86C304.64 46.3599 298.77 40.4899 298.77 33.2699C298.77 26.0499 304.64 20.1799 311.86 20.1799H366.55C373.77 20.1799 379.64 26.0499 379.64 33.2699C379.64 40.4899 373.77 46.3599 366.55 46.3599Z" fill="#146289"/>
<path d="M430.61 201.79H247.8C239.527 201.79 232.82 208.495 232.82 216.765C232.82 225.036 239.527 231.74 247.8 231.74H430.61C438.883 231.74 445.59 225.036 445.59 216.765C445.59 208.495 438.883 201.79 430.61 201.79Z" fill="#0582CA"/>
<path d="M300.34 176.9H239.85C238.409 176.9 237.24 178.068 237.24 179.51C237.24 180.951 238.409 182.12 239.85 182.12H300.34C301.782 182.12 302.95 180.951 302.95 179.51C302.95 178.068 301.782 176.9 300.34 176.9Z" fill="#0582CA"/>
<path d="M430.61 303.18H247.8C239.527 303.18 232.82 309.884 232.82 318.155C232.82 326.425 239.527 333.13 247.8 333.13H430.61C438.883 333.13 445.59 326.425 445.59 318.155C445.59 309.884 438.883 303.18 430.61 303.18Z" fill="#146289"/>
<path d="M300.34 278.28H239.85C238.409 278.28 237.24 279.449 237.24 280.89C237.24 282.332 238.409 283.5 239.85 283.5H300.34C301.782 283.5 302.95 282.332 302.95 280.89C302.95 279.449 301.782 278.28 300.34 278.28Z" fill="#146289"/>
<path d="M430.61 404.56H247.8C239.527 404.56 232.82 411.265 232.82 419.535C232.82 427.806 239.527 434.51 247.8 434.51H430.61C438.883 434.51 445.59 427.806 445.59 419.535C445.59 411.265 438.883 404.56 430.61 404.56Z" fill="#146289"/>
<path d="M300.34 379.67H239.85C238.409 379.67 237.24 380.838 237.24 382.28C237.24 383.721 238.409 384.89 239.85 384.89H300.34C301.782 384.89 302.95 383.721 302.95 382.28C302.95 380.838 301.782 379.67 300.34 379.67Z" fill="#146289"/>
<path d="M537.95 123.4C537.95 123.4 517.33 125.73 516 157.65C514.89 184.25 512.63 199.08 523.45 204.63C527.32 206.61 531.87 206.79 536 205.43L580.18 190.9C580.18 190.9 580.85 143.01 565.55 131.38C550.25 119.74 537.95 123.4 537.95 123.4Z" fill="#2F2E41"/>
<path d="M562.31 196.78L539.95 204.13V171.95H560.23L562.31 196.78Z" fill="#FFB6B6"/>
<path d="M493.96 379.49C492.75 386.86 487.83 392.15 482.98 391.3C478.13 390.45 475.17 383.78 476.39 376.4C476.83 373.45 478 370.65 479.8 368.26L485.34 337.09L500.42 340.25L493.35 370.64C494.28 373.52 494.49 376.55 493.96 379.49Z" fill="#FFB6B6"/>
<path d="M615.85 375.91C617.34 383.23 614.61 389.92 609.77 390.85C604.93 391.78 599.8 386.59 598.32 379.27C597.69 376.35 597.79 373.33 598.61 370.45L592.72 339.34L607.94 336.93L612.13 367.85C614.02 370.21 615.29 372.97 615.85 375.91Z" fill="#FFB6B6"/>
<path d="M553.9 557.07H532.96V586.78H553.9V557.07Z" fill="#FFB6B6"/>
<path d="M512.57 604.77C510.37 604.77 508.41 604.72 506.93 604.58C501.37 604.07 496.06 599.96 493.39 597.56C492.19 596.48 491.81 594.76 492.43 593.28C492.88 592.22 493.77 591.42 494.88 591.11L509.58 586.91L533.38 570.85L533.65 571.33C533.75 571.51 536.09 575.72 536.87 578.56C537.17 579.64 537.09 580.54 536.64 581.24C536.33 581.72 535.89 582 535.54 582.16C535.97 582.61 537.32 583.53 541.48 584.19C547.55 585.15 548.83 578.86 548.88 578.6L548.92 578.39L549.1 578.27C551.99 576.41 553.77 575.56 554.38 575.74C554.76 575.85 555.4 576.05 557.13 593.18C557.3 593.72 558.51 597.66 557.69 601.43C556.8 605.53 538.88 604.12 535.29 603.8C535.19 603.81 521.77 604.77 512.58 604.77H512.57Z" fill="#2F2E41"/>
<path d="M613.522 533.733L595.754 544.814L611.476 570.023L629.244 558.942L613.522 533.733Z" fill="#FFB6B6"/>
<path d="M589.93 600.7C587.47 600.7 585.21 600.4 583.6 600.12C582.02 599.84 580.78 598.58 580.52 597C580.34 595.86 580.67 594.71 581.45 593.86L591.7 582.52L603.4 556.3L603.88 556.56C604.06 556.66 608.27 558.99 610.44 560.99C611.27 561.75 611.68 562.56 611.66 563.39C611.65 563.97 611.43 564.43 611.21 564.76C611.81 564.92 613.44 564.98 617.32 563.34C622.98 560.95 620.74 554.93 620.64 554.68L620.56 554.48L620.65 554.29C622.12 551.18 623.17 549.52 623.79 549.35C624.18 549.24 624.82 549.07 635.35 562.7C635.78 563.06 638.89 565.77 640.19 569.4C641.6 573.35 625.65 581.64 622.44 583.26C622.34 583.34 605.65 595.47 598.79 598.92C596.07 600.29 592.85 600.71 589.92 600.71L589.93 600.7Z" fill="#2F2E41"/>
<path d="M569.32 308.62H510.69L505.37 363.16L528.65 564.68H558.58L546.61 448.29L595.16 553.37L621.76 534.75L583.85 436.65C583.85 436.65 597.39 351.19 586.75 329.9C576.11 308.62 569.32 308.62 569.32 308.62Z" fill="#2F2E41"/>
<path d="M598.48 311.95H496.73L533.31 191.57H573.88L598.48 311.95Z" fill="#0582CA"/>
<path d="M539.71 191.59C539.71 191.59 514.44 190.92 511.78 197.58C509.12 204.23 477.86 362.52 477.86 362.52H498.48L539.72 191.59H539.71Z" fill="#0582CA"/>
<path d="M556.15 191.73C556.15 191.73 578.41 188.91 581.07 195.56C583.73 202.21 614.99 360.5 614.99 360.5H594.37L556.15 191.73Z" fill="#0582CA"/>
<path d="M542.72 180.86C555.025 180.86 565 170.885 565 158.58C565 146.275 555.025 136.3 542.72 136.3C530.415 136.3 520.44 146.275 520.44 158.58C520.44 170.885 530.415 180.86 542.72 180.86Z" fill="#FFB6B6"/>
<path d="M536.62 131.71C536.62 131.71 524.36 181.5 537.99 204.77L518.79 200.69C518.79 200.69 511.35 146.2 526.31 136.29L536.62 131.7V131.71Z" fill="#2F2E41"/>
<path d="M678.62 603.58C678.62 604.41 677.95 605.08 677.12 605.08H1.5C0.67 605.08 0 604.41 0 603.58C0 602.75 0.67 602.08 1.5 602.08H677.12C677.95 602.08 678.62 602.75 678.62 603.58Z" fill="#2E2E41" fill-opacity="0.44"/>
<path d="M115.1 174.73L140.71 183.15V146.28H117.47L115.1 174.73Z" fill="#A0616A"/>
<path d="M137.54 156.48C151.634 156.48 163.06 145.054 163.06 130.96C163.06 116.866 151.634 105.44 137.54 105.44C123.446 105.44 112.02 116.866 112.02 130.96C112.02 145.054 123.446 156.48 137.54 156.48Z" fill="#A0616A"/>
<path d="M131.04 132.96L134.56 137.23L140.92 126.09C140.92 126.09 149.04 126.51 149.04 120.48C149.04 114.45 156.49 114.28 156.49 114.28C156.49 114.28 167.04 95.86 145.19 100.71C145.19 100.71 130.03 90.33 122.5 99.2C122.5 99.2 99.3898 110.84 106 131.1L116.99 151.99L119.48 147.26C119.48 147.26 117.97 127.41 131.04 132.94V132.96Z" fill="#2F2E41"/>
<path d="M107.41 587.1H128.35V557.39H107.41V587.1Z" fill="#A0616A"/>
<path d="M126.04 604.12C122.46 604.44 104.54 605.86 103.64 601.75C102.82 597.98 104.03 594.04 104.2 593.5C105.92 576.36 106.56 576.17 106.95 576.06C107.56 575.88 109.34 576.73 112.23 578.59L112.41 578.71L112.45 578.92C112.5 579.19 113.78 585.48 119.85 584.51C124.01 583.85 125.36 582.93 125.79 582.48C125.44 582.32 125 582.04 124.69 581.56C124.24 580.86 124.16 579.96 124.46 578.88C125.24 576.03 127.58 571.82 127.68 571.65L127.95 571.17L151.75 587.23L166.45 591.43C167.56 591.75 168.45 592.54 168.9 593.6C169.52 595.08 169.14 596.8 167.94 597.88C165.27 600.28 159.97 604.39 154.4 604.9C152.92 605.04 150.96 605.09 148.76 605.09C139.57 605.09 126.15 604.14 126.05 604.12H126.04Z" fill="#2F2E41"/>
<path d="M155.1 301.25L100.17 298.44C100.17 298.44 91.7498 330.36 102.39 363.62L103.67 563.91H134.71L163.97 357.3L155.1 301.25Z" fill="#2F2E41"/>
<path d="M145.83 167.65L115.68 151.65C115.68 151.65 83.1898 199.13 87.6798 224.85C92.1798 250.57 100.16 298.45 100.16 298.45L166.67 301.26L155.06 206.97L145.83 167.65Z" fill="#006494"/>
<path d="M122.31 587.1H143.25V557.39H122.31V587.1Z" fill="#A0616A"/>
<path d="M140.94 604.12C137.36 604.44 119.44 605.86 118.54 601.75C117.72 597.98 118.93 594.04 119.1 593.5C120.82 576.36 121.46 576.17 121.85 576.06C122.46 575.88 124.24 576.73 127.13 578.59L127.31 578.71L127.35 578.92C127.4 579.19 128.68 585.48 134.75 584.51C138.91 583.85 140.26 582.93 140.69 582.48C140.34 582.32 139.9 582.04 139.59 581.56C139.14 580.86 139.06 579.96 139.36 578.88C140.14 576.03 142.48 571.82 142.58 571.65L142.85 571.17L166.65 587.23L181.35 591.43C182.46 591.75 183.35 592.54 183.8 593.6C184.42 595.08 184.04 596.8 182.84 597.88C180.17 600.28 174.87 604.39 169.3 604.9C167.82 605.04 165.86 605.09 163.66 605.09C154.47 605.09 141.05 604.14 140.95 604.12H140.94Z" fill="#2F2E41"/>
<path d="M166.67 301.25L100.16 298.44C100.16 298.44 91.7401 330.36 102.38 363.62L115.24 563.91H146.28L175.54 357.3L166.67 301.25Z" fill="#2F2E41"/>
<path d="M192.22 353.55C194.67 360.61 192.86 367.6 188.19 369.17C183.52 370.73 177.75 366.28 175.3 359.21C174.28 356.4 173.98 353.39 174.42 350.43L164.45 320.38L179.21 315.97L187.48 346.06C189.67 348.15 191.3 350.72 192.23 353.55H192.22Z" fill="#A0616A"/>
<path d="M108.54 178.95C108.54 178.95 130.22 173.19 133.75 179.43C137.27 185.67 189.32 338.39 189.32 338.39L156.28 342.69L108.55 178.95H108.54Z" fill="#006494"/>
</g>
<defs>
<clipPath id="clip0_106_109">
<rect width="678.62" height="606.19" fill="white"/>
</clipPath>
</defs>
</svg>
